<svg id="Layer_1" data-name="Layer 1" xmlns="http://www.w3.org/2000/svg" width="145" height="28" viewBox="0 0 145 28"><title>logo-vertex-header</title><path d="M12.5,27.6A2.7,2.7,0,0,0,15.2,25V3A2.7,2.7,0,1,0,9.9,3V25A2.6,2.6,0,0,0,12.5,27.6Z" fill="#b2b3b3"/><path d="M22.4,23.4a2.7,2.7,0,0,0,2.7-2.7V7.2a2.7,2.7,0,0,0-5.3,0V20.7A2.7,2.7,0,0,0,22.4,23.4Z" fill="#b2b3b3"/><path d="M2.7,23.4a2.7,2.7,0,0,0,2.6-2.7V7.2A2.7,2.7,0,0,0,0,7.2V20.7A2.7,2.7,0,0,0,2.7,23.4Z" fill="#b2b3b3"/><path d="M2.7,23.5A2.6,2.6,0,0,0,5,22.2L15,4.1a2.7,2.7,0,0,0,.2-2A2.4,2.4,0,0,0,13.9.6,2.2,2.2,0,0,0,12.5.3a2.6,2.6,0,0,0-2.2,1.3L.3,19.7a2.5,2.5,0,0,0,1.1,3.5A2.1,2.1,0,0,0,2.7,23.5Z" fill="#1c4077"/><path d="M12.6,27.7a2.6,2.6,0,0,0,2.3-1.3L24.8,8.3a2.8,2.8,0,0,0,.3-2,2.4,2.4,0,0,0-1.3-1.5,2.3,2.3,0,0,0-1.4-.4,2.7,2.7,0,0,0-2.2,1.4l-10,18.1a2.5,2.5,0,0,0,1.1,3.5A1.9,1.9,0,0,0,12.6,27.7Z" fill="#c1d831"/><path d="M105.2,6.9h-4.9V24.8a.7.7,0,0,1-.7.6h-4a.6.6,0,0,1-.6-.6V6.9H90c-.3,0-.7-.2-.7-.5V3.2c0-.3.3-.5.7-.5h15.2a.6.6,0,0,1,.6.5V6.4C105.9,6.7,105.6,6.9,105.2,6.9Z" fill="#1c4077"/><path d="M144.5,25.3h-4.8a.7.7,0,0,1-.8-.5l-4-6.4-3.6,6.3c-.3.4-.4.6-.8.6H126c-.4,0-.5-.1-.5-.4v-.2l6.4-11L125.6,3.1h-.1c0-.3.2-.4.5-.4h4.9c.3,0,.5.3.8.5l3.7,6.2,3.5-6.2c.2-.2.4-.5.8-.5h4.5c.2,0,.5.1.5.4s0,.1-.1.1l-6.3,10.8,6.6,10.8a.4.4,0,0,1,.1.3A.5.5,0,0,1,144.5,25.3Z" fill="#1c4077"/><path d="M87.9,24.7l-4.6-8.6A6.1,6.1,0,0,0,87.2,10V9.6c0-5.4-3.9-6.9-6.8-6.9H71.1a.6.6,0,0,0-.6.6V24.8c0,.4.2.7.6.7H75a.7.7,0,0,0,.7-.7V17h2.5l4.1,7.8c.1.4.2.7.6.7h4.7a.5.5,0,0,0,.5-.4ZM82,9.9c0,1.7-.4,2.8-3.6,2.8H75.7V6.8h3c2.6,0,3.4,1.3,3.4,2.7v.4Z" fill="#1c4077"/><path d="M66.2,6.7a.7.7,0,0,0,.6-.7V3.2c0-.4-.1-.5-.6-.6H53.4a.6.6,0,0,0-.6.6V24.8a.6.6,0,0,0,.6.6H66.2c.4-.1.6-.2.6-.6V21.9a.6.6,0,0,0-.6-.6H58.7c-.4,0-.7-.2-.7-.6V15.8h8a.6.6,0,0,0,.6-.6V12.3a.6.6,0,0,0-.6-.6H58V10.5h0V7.3a.7.7,0,0,1,.7-.6Z" fill="#1c4077"/><path d="M122,6.7a.8.8,0,0,0,.7-.7V3.2c0-.4-.2-.5-.7-.6H109.3c-.4,0-.7.2-.7.6V24.8a.7.7,0,0,0,.7.6H122c.4-.1.7-.2.7-.6V21.9a.7.7,0,0,0-.7-.6h-7.5a.7.7,0,0,1-.7-.6V15.8h8a.6.6,0,0,0,.6-.6V12.3a.6.6,0,0,0-.6-.6h-8V10.5h0V7.3a.7.7,0,0,1,.7-.6Z" fill="#1c4077"/><path d="M50.5,3.1c0-.3-.3-.4-.5-.4H45.7a.5.5,0,0,0-.5.5L41.3,20.9c-.1.3-.2.5-.4.5a.5.5,0,0,1-.4-.5L36.6,3.1a.8.8,0,0,0-.7-.5H31.7c-.4,0-.6.2-.6.5h0l5,20.7a1.7,1.7,0,0,0,1.8,1.4h5.6a1.7,1.7,0,0,0,1.8-1.4h0c1-3.8,5-20.7,5-20.7Z" fill="#1c4077"/></svg>